<svg width="283" height="76" viewBox="0 0 283 76" fill="none" xmlns="http://www.w3.org/2000/svg">
<path d="M24.1135 45.4574C15.1461 50.2015 9.63602 50.218 0.877356 47.6358C0.365105 47.4848 -0.00891563 47.0292 0.00164834 46.4953C0.161329 38.4244 11.897 37.7137 24.0564 43.258C24.9933 43.6852 25.0238 44.9758 24.1135 45.4574Z" fill="#1399CF"/>
<path d="M56.0747 57.0483C46.2186 84.3454 3.61639 80.9537 0.355262 52.4153C0.278376 51.7424 0.901203 51.1899 1.56455 51.3262C4.62753 51.9557 12.326 53.2743 17.9104 51.9792C25.0318 50.3278 30.9209 45.1042 30.9209 45.1042C30.9209 45.1042 37.8874 38.9527 45.4648 39.9001C53.7028 40.93 58.8941 49.2396 56.0747 57.0483Z" fill="#084F8C"/>
<path d="M30.3099 26.6334C29.3236 26.4011 21.5245 38.9463 30.3099 38.9463C39.0953 38.9463 31.2962 26.8658 30.3099 26.6334Z" fill="#1399CF"/>
<path d="M49.226 27.84C48.2203 29.9294 45.1121 31.0723 42.1372 27.8423C33.4116 18.3684 24.686 20.2632 17.5678 28.0792C16.8058 28.8652 16.0289 29.4042 15.279 29.6924C10.8758 31.3844 11.4639 23.1839 14.8866 19.938C25.2464 10.1129 41.9157 13.3557 48.4404 23.7916C49.2103 25.023 49.8558 26.5313 49.226 27.84Z" fill="#1399CF"/>
<path d="M58.0644 15.6815C57.0676 17.7455 53.7302 18.34 49.3949 14.5789C36.3831 3.29059 21.461 5.97646 10.8462 15.2893C9.83993 16.1186 8.87157 16.8251 7.95956 17.3567C3.00388 20.2455 2.98673 11.6094 7.43169 7.98369C22.6634 -4.44064 47.1168 -1.54448 56.7681 11.0181C57.8128 12.378 58.8102 14.1374 58.0644 15.6815Z" fill="#1399CF"/>
<path d="M93.2411 49.048H80.6651L78.6491 55H70.0571L82.2491 21.304H91.7531L103.945 55H95.2571L93.2411 49.048ZM91.1291 42.712L86.9531 30.376L82.8251 42.712H91.1291ZM106.024 41.656C106.024 39 106.568 36.632 107.656 34.552C108.776 32.472 110.264 30.856 112.12 29.704C114.008 28.52 116.056 27.928 118.264 27.928C119.96 27.928 121.48 28.232 122.824 28.84C124.168 29.416 125.256 30.232 126.088 31.288V28.216H134.296V67.768H126.088V51.64C125.16 52.76 124.024 53.656 122.68 54.328C121.368 55 119.864 55.336 118.168 55.336C115.992 55.336 113.976 54.76 112.12 53.608C110.264 52.456 108.776 50.84 107.656 48.76C106.568 46.68 106.024 44.312 106.024 41.656ZM126.088 41.608C126.088 40.168 125.8 38.968 125.224 38.008C124.68 37.016 123.96 36.28 123.064 35.8C122.168 35.288 121.224 35.032 120.232 35.032C119.272 35.032 118.344 35.288 117.448 35.8C116.552 36.28 115.816 37.016 115.24 38.008C114.664 39 114.376 40.216 114.376 41.656C114.376 43.096 114.664 44.312 115.24 45.304C115.816 46.264 116.552 47 117.448 47.512C118.344 47.992 119.272 48.232 120.232 48.232C121.192 48.232 122.12 47.992 123.016 47.512C123.944 47 124.68 46.248 125.224 45.256C125.8 44.264 126.088 43.048 126.088 41.608ZM166.682 28.216V55H158.474V51.352C157.642 52.536 156.506 53.496 155.066 54.232C153.658 54.936 152.09 55.288 150.362 55.288C148.314 55.288 146.506 54.84 144.938 53.944C143.37 53.016 142.154 51.688 141.29 49.96C140.426 48.232 139.994 46.2 139.994 43.864V28.216H148.154V42.76C148.154 44.552 148.618 45.944 149.546 46.936C150.474 47.928 151.722 48.424 153.29 48.424C154.89 48.424 156.154 47.928 157.082 46.936C158.01 45.944 158.474 44.552 158.474 42.76V28.216H166.682ZM170.946 41.56C170.946 38.808 171.458 36.392 172.482 34.312C173.538 32.232 174.962 30.632 176.754 29.512C178.546 28.392 180.546 27.832 182.754 27.832C184.642 27.832 186.29 28.216 187.698 28.984C189.138 29.752 190.242 30.76 191.01 32.008V28.216H199.218V55H191.01V51.208C190.21 52.456 189.09 53.464 187.65 54.232C186.242 55 184.594 55.384 182.706 55.384C180.53 55.384 178.546 54.824 176.754 53.704C174.962 52.552 173.538 50.936 172.482 48.856C171.458 46.744 170.946 44.312 170.946 41.56ZM191.01 41.608C191.01 39.56 190.434 37.944 189.282 36.76C188.162 35.576 186.786 34.984 185.154 34.984C183.522 34.984 182.13 35.576 180.978 36.76C179.858 37.912 179.298 39.512 179.298 41.56C179.298 43.608 179.858 45.24 180.978 46.456C182.13 47.64 183.522 48.232 185.154 48.232C186.786 48.232 188.162 47.64 189.282 46.456C190.434 45.272 191.01 43.656 191.01 41.608Z" fill="#084F8C"/>
<path d="M208.276 53.176H220.804V55H206.116V21.304H208.276V53.176ZM226.813 23.128C226.301 23.128 225.869 22.968 225.517 22.648C225.165 22.296 224.989 21.832 224.989 21.256C224.989 20.712 225.165 20.264 225.517 19.912C225.869 19.56 226.301 19.384 226.813 19.384C227.325 19.384 227.757 19.56 228.109 19.912C228.461 20.264 228.637 20.712 228.637 21.256C228.637 21.832 228.461 22.296 228.109 22.648C227.757 22.968 227.325 23.128 226.813 23.128ZM227.869 28.936V55H225.709V28.936H227.869ZM247.548 28.408C250.652 28.408 253.18 29.368 255.132 31.288C257.084 33.176 258.06 35.992 258.06 39.736V55H255.948V39.88C255.948 36.776 255.164 34.408 253.596 32.776C252.028 31.112 249.9 30.28 247.212 30.28C244.396 30.28 242.14 31.176 240.444 32.968C238.78 34.76 237.948 37.416 237.948 40.936V55H235.788V28.936H237.948V34.456C238.684 32.504 239.9 31.016 241.596 29.992C243.324 28.936 245.308 28.408 247.548 28.408ZM279.23 55L267.854 43.048V55H265.694V19.48H267.854V40.744L279.038 28.936H282.062L269.438 41.896L282.206 55H279.23Z" fill="#1399CF"/>
</svg>
