<svg width="307" height="94" viewBox="0 0 307 94" fill="none" xmlns="http://www.w3.org/2000/svg">
<path d="M30.3579 55.6392C18.9776 61.7651 12.1491 61.7975 1.10959 58.5185C0.597642 58.3665 0.223422 57.9072 0.223724 57.3731C0.229547 47.1495 15.0748 46.31 30.3022 53.422C31.2352 53.8578 31.2647 55.1512 30.3579 55.6392Z" fill="#1399CF"/>
<path d="M69.1763 70.1498C57.0207 103.816 4.35848 99.52 0.626059 64.1386C0.555014 63.4651 1.17516 62.9097 1.83787 63.0492C5.36902 63.792 15.1835 65.5546 22.2474 63.9166C31.0043 61.8859 38.2458 55.4627 38.2458 55.4627C38.2458 55.4627 46.8122 47.8984 56.1299 49.0634C66.2597 50.3299 72.6433 60.5478 69.1763 70.1498Z" fill="#084F8C"/>
<path d="M37.4945 32.7499C36.2817 32.4642 26.6915 47.8904 37.4945 47.8904C48.2975 47.8904 38.7073 33.0356 37.4945 32.7499Z" fill="#1399CF"/>
<path d="M60.9454 33.7698C59.9677 36.6194 55.911 38.4417 52.038 34.2366C41.3085 22.587 30.5791 24.917 21.8261 34.5279C20.3176 36.0839 18.7613 36.8529 17.373 36.8145C12.6576 36.6843 14.1304 29.1543 17.3494 25.7063C30.1001 12.0484 51.9758 16.103 60.0502 29.6843C60.7924 30.9327 61.4167 32.396 60.9454 33.7698Z" fill="#1399CF"/>
<path d="M71.8359 18.7303C70.9602 21.6938 66.6629 22.8724 60.9625 17.927C44.9624 4.04629 26.6134 7.34899 13.5608 18.8006C11.6114 20.4072 9.7777 21.6389 8.14841 22.2455C2.77274 24.2469 3.5404 15.0168 7.79232 11.1666C26.5502 -5.81938 58.4458 -2.27113 70.3847 14.0225C71.3982 15.4057 72.3218 17.0858 71.8359 18.7303Z" fill="#1399CF"/>
<path d="M117.241 58.048H104.665L102.649 64H94.0571L106.249 30.304H115.753L127.945 64H119.257L117.241 58.048ZM115.129 51.712L110.953 39.376L106.825 51.712H115.129ZM130.024 50.656C130.024 48 130.568 45.632 131.656 43.552C132.776 41.472 134.264 39.856 136.12 38.704C138.008 37.52 140.056 36.928 142.264 36.928C143.96 36.928 145.48 37.232 146.824 37.84C148.168 38.416 149.256 39.232 150.088 40.288V37.216H158.296V76.768H150.088V60.64C149.16 61.76 148.024 62.656 146.68 63.328C145.368 64 143.864 64.336 142.168 64.336C139.992 64.336 137.976 63.76 136.12 62.608C134.264 61.456 132.776 59.84 131.656 57.76C130.568 55.68 130.024 53.312 130.024 50.656ZM150.088 50.608C150.088 49.168 149.8 47.968 149.224 47.008C148.68 46.016 147.96 45.28 147.064 44.8C146.168 44.288 145.224 44.032 144.232 44.032C143.272 44.032 142.344 44.288 141.448 44.8C140.552 45.28 139.816 46.016 139.24 47.008C138.664 48 138.376 49.216 138.376 50.656C138.376 52.096 138.664 53.312 139.24 54.304C139.816 55.264 140.552 56 141.448 56.512C142.344 56.992 143.272 57.232 144.232 57.232C145.192 57.232 146.12 56.992 147.016 56.512C147.944 56 148.68 55.248 149.224 54.256C149.8 53.264 150.088 52.048 150.088 50.608ZM190.682 37.216V64H182.474V60.352C181.642 61.536 180.506 62.496 179.066 63.232C177.658 63.936 176.09 64.288 174.362 64.288C172.314 64.288 170.506 63.84 168.938 62.944C167.37 62.016 166.154 60.688 165.29 58.96C164.426 57.232 163.994 55.2 163.994 52.864V37.216H172.154V51.76C172.154 53.552 172.618 54.944 173.546 55.936C174.474 56.928 175.722 57.424 177.29 57.424C178.89 57.424 180.154 56.928 181.082 55.936C182.01 54.944 182.474 53.552 182.474 51.76V37.216H190.682ZM194.946 50.56C194.946 47.808 195.458 45.392 196.482 43.312C197.538 41.232 198.962 39.632 200.754 38.512C202.546 37.392 204.546 36.832 206.754 36.832C208.642 36.832 210.29 37.216 211.698 37.984C213.138 38.752 214.242 39.76 215.01 41.008V37.216H223.218V64H215.01V60.208C214.21 61.456 213.09 62.464 211.65 63.232C210.242 64 208.594 64.384 206.706 64.384C204.53 64.384 202.546 63.824 200.754 62.704C198.962 61.552 197.538 59.936 196.482 57.856C195.458 55.744 194.946 53.312 194.946 50.56ZM215.01 50.608C215.01 48.56 214.434 46.944 213.282 45.76C212.162 44.576 210.786 43.984 209.154 43.984C207.522 43.984 206.13 44.576 204.978 45.76C203.858 46.912 203.298 48.512 203.298 50.56C203.298 52.608 203.858 54.24 204.978 55.456C206.13 56.64 207.522 57.232 209.154 57.232C210.786 57.232 212.162 56.64 213.282 55.456C214.434 54.272 215.01 52.656 215.01 50.608Z" fill="#084F8C"/>
<path d="M232.276 62.176H244.804V64H230.116V30.304H232.276V62.176ZM250.813 32.128C250.301 32.128 249.869 31.968 249.517 31.648C249.165 31.296 248.989 30.832 248.989 30.256C248.989 29.712 249.165 29.264 249.517 28.912C249.869 28.56 250.301 28.384 250.813 28.384C251.325 28.384 251.757 28.56 252.109 28.912C252.461 29.264 252.637 29.712 252.637 30.256C252.637 30.832 252.461 31.296 252.109 31.648C251.757 31.968 251.325 32.128 250.813 32.128ZM251.869 37.936V64H249.709V37.936H251.869ZM271.548 37.408C274.652 37.408 277.18 38.368 279.132 40.288C281.084 42.176 282.06 44.992 282.06 48.736V64H279.948V48.88C279.948 45.776 279.164 43.408 277.596 41.776C276.028 40.112 273.9 39.28 271.212 39.28C268.396 39.28 266.14 40.176 264.444 41.968C262.78 43.76 261.948 46.416 261.948 49.936V64H259.788V37.936H261.948V43.456C262.684 41.504 263.9 40.016 265.596 38.992C267.324 37.936 269.308 37.408 271.548 37.408ZM303.23 64L291.854 52.048V64H289.694V28.48H291.854V49.744L303.038 37.936H306.062L293.438 50.896L306.206 64H303.23Z" fill="#1399CF"/>
</svg>
