<svg width="122" height="198" viewBox="0 0 122 198" fill="none" xmlns="http://www.w3.org/2000/svg">
<line x1="18" y1="42" x2="18" y2="74" stroke="#084F8C" stroke-width="2" stroke-linecap="round"/>
<line x1="1" y1="57" x2="33" y2="57" stroke="#084F8C" stroke-width="2" stroke-linecap="round"/>
<line x1="62" y1="42" x2="62" y2="74" stroke="#084F8C" stroke-width="2" stroke-linecap="round"/>
<line x1="45" y1="57" x2="77" y2="57" stroke="#084F8C" stroke-width="2" stroke-linecap="round"/>
<line x1="106" y1="42" x2="106" y2="74" stroke="#084F8C" stroke-width="2" stroke-linecap="round"/>
<line x1="89" y1="57" x2="121" y2="57" stroke="#084F8C" stroke-width="2" stroke-linecap="round"/>
<line x1="18" y1="42" x2="18" y2="74" stroke="#084F8C" stroke-width="2" stroke-linecap="round"/>
<line x1="62" y1="42" x2="62" y2="74" stroke="#084F8C" stroke-width="2" stroke-linecap="round"/>
<line x1="106" y1="42" x2="106" y2="74" stroke="#084F8C" stroke-width="2" stroke-linecap="round"/>
<line x1="18" y1="1" x2="18" y2="33" stroke="#084F8C" stroke-width="2" stroke-linecap="round"/>
<line x1="1" y1="16" x2="33" y2="16" stroke="#084F8C" stroke-width="2" stroke-linecap="round"/>
<line x1="62" y1="1" x2="62" y2="33" stroke="#084F8C" stroke-width="2" stroke-linecap="round"/>
<line x1="45" y1="16" x2="77" y2="16" stroke="#084F8C" stroke-width="2" stroke-linecap="round"/>
<line x1="106" y1="1" x2="106" y2="33" stroke="#084F8C" stroke-width="2" stroke-linecap="round"/>
<line x1="89" y1="16" x2="121" y2="16" stroke="#084F8C" stroke-width="2" stroke-linecap="round"/>
<line x1="18" y1="1" x2="18" y2="33" stroke="#084F8C" stroke-width="2" stroke-linecap="round"/>
<line x1="62" y1="1" x2="62" y2="33" stroke="#084F8C" stroke-width="2" stroke-linecap="round"/>
<line x1="106" y1="1" x2="106" y2="33" stroke="#084F8C" stroke-width="2" stroke-linecap="round"/>
<line x1="106" y1="83" x2="106" y2="115" stroke="#084F8C" stroke-width="2" stroke-linecap="round"/>
<line x1="89" y1="98" x2="121" y2="98" stroke="#084F8C" stroke-width="2" stroke-linecap="round"/>
<line x1="106" y1="124" x2="106" y2="156" stroke="#084F8C" stroke-width="2" stroke-linecap="round"/>
<line x1="89" y1="139" x2="121" y2="139" stroke="#084F8C" stroke-width="2" stroke-linecap="round"/>
<line x1="106" y1="165" x2="106" y2="197" stroke="#084F8C" stroke-width="2" stroke-linecap="round"/>
<line x1="89" y1="180" x2="121" y2="180" stroke="#084F8C" stroke-width="2" stroke-linecap="round"/>
<line x1="62" y1="124" x2="62" y2="156" stroke="#084F8C" stroke-width="2" stroke-linecap="round"/>
<line x1="45" y1="139" x2="77" y2="139" stroke="#084F8C" stroke-width="2" stroke-linecap="round"/>
<line x1="62" y1="165" x2="62" y2="197" stroke="#084F8C" stroke-width="2" stroke-linecap="round"/>
<line x1="45" y1="180" x2="77" y2="180" stroke="#084F8C" stroke-width="2" stroke-linecap="round"/>
<line x1="62" y1="83" x2="62" y2="115" stroke="#084F8C" stroke-width="2" stroke-linecap="round"/>
<line x1="45" y1="98" x2="77" y2="98" stroke="#084F8C" stroke-width="2" stroke-linecap="round"/>
<line x1="18" y1="83" x2="18" y2="115" stroke="#084F8C" stroke-width="2" stroke-linecap="round"/>
<line x1="1" y1="98" x2="33" y2="98" stroke="#084F8C" stroke-width="2" stroke-linecap="round"/>
<line x1="18" y1="124" x2="18" y2="156" stroke="#084F8C" stroke-width="2" stroke-linecap="round"/>
<line x1="1" y1="139" x2="33" y2="139" stroke="#084F8C" stroke-width="2" stroke-linecap="round"/>
<line x1="18" y1="165" x2="18" y2="197" stroke="#084F8C" stroke-width="2" stroke-linecap="round"/>
<line x1="1" y1="180" x2="33" y2="180" stroke="#084F8C" stroke-width="2" stroke-linecap="round"/>
</svg>
