<svg width="214" height="224" viewBox="0 0 214 224" fill="none" xmlns="http://www.w3.org/2000/svg">
<path d="M96.466 95.4795C75.8009 106.931 63.9357 107.022 44.1384 101.065C43.627 100.911 43.2517 100.441 43.234 99.9077C42.6209 81.4105 69.426 80.0859 96.4086 93.2345C97.3344 93.6856 97.3667 94.9803 96.466 95.4795Z" fill="#1399CF"/>
<path d="M163.415 115.357C146.626 179.771 49.5239 173.554 43.8181 109.907C43.7577 109.233 44.3695 108.671 45.0308 108.817C50.0359 109.919 68.1854 113.493 81.0339 110.514C96.0678 107.027 108.5 96 108.5 96C108.5 96 123.207 83.0137 139.203 85.0137C141.314 85.2776 143.332 85.6198 145.244 86.015C158.675 88.7907 166.874 102.086 163.415 115.357Z" fill="#084F8C"/>
<path d="M107.21 57.0067C105.128 56.5163 88.6636 83 107.21 83C125.757 83 109.292 57.4972 107.21 57.0067Z" fill="#1399CF"/>
<path d="M24.2411 199.048H11.6651L9.64906 205H1.05706L13.2491 171.304H22.7531L34.9451 205H26.2571L24.2411 199.048ZM22.1291 192.712L17.9531 180.376L13.8251 192.712H22.1291ZM37.0237 191.656C37.0237 189 37.5677 186.632 38.6557 184.552C39.7757 182.472 41.2637 180.856 43.1197 179.704C45.0077 178.52 47.0557 177.928 49.2637 177.928C50.9597 177.928 52.4797 178.232 53.8237 178.84C55.1677 179.416 56.2557 180.232 57.0877 181.288V178.216H65.2957V217.768H57.0877V201.64C56.1597 202.76 55.0237 203.656 53.6797 204.328C52.3677 205 50.8637 205.336 49.1677 205.336C46.9917 205.336 44.9757 204.76 43.1197 203.608C41.2637 202.456 39.7757 200.84 38.6557 198.76C37.5677 196.68 37.0237 194.312 37.0237 191.656ZM57.0877 191.608C57.0877 190.168 56.7997 188.968 56.2237 188.008C55.6797 187.016 54.9597 186.28 54.0637 185.8C53.1677 185.288 52.2237 185.032 51.2317 185.032C50.2717 185.032 49.3437 185.288 48.4477 185.8C47.5517 186.28 46.8157 187.016 46.2397 188.008C45.6637 189 45.3757 190.216 45.3757 191.656C45.3757 193.096 45.6637 194.312 46.2397 195.304C46.8157 196.264 47.5517 197 48.4477 197.512C49.3437 197.992 50.2717 198.232 51.2317 198.232C52.1917 198.232 53.1197 197.992 54.0157 197.512C54.9437 197 55.6797 196.248 56.2237 195.256C56.7997 194.264 57.0877 193.048 57.0877 191.608ZM97.6818 178.216V205H89.4738V201.352C88.6418 202.536 87.5058 203.496 86.0658 204.232C84.6578 204.936 83.0898 205.288 81.3618 205.288C79.3138 205.288 77.5058 204.84 75.9378 203.944C74.3698 203.016 73.1538 201.688 72.2898 199.96C71.4258 198.232 70.9938 196.2 70.9938 193.864V178.216H79.1538V192.76C79.1538 194.552 79.6178 195.944 80.5458 196.936C81.4738 197.928 82.7218 198.424 84.2898 198.424C85.8898 198.424 87.1538 197.928 88.0818 196.936C89.0098 195.944 89.4738 194.552 89.4738 192.76V178.216H97.6818ZM101.946 191.56C101.946 188.808 102.458 186.392 103.482 184.312C104.538 182.232 105.962 180.632 107.754 179.512C109.546 178.392 111.546 177.832 113.754 177.832C115.642 177.832 117.29 178.216 118.698 178.984C120.138 179.752 121.242 180.76 122.01 182.008V178.216H130.218V205H122.01V201.208C121.21 202.456 120.09 203.464 118.65 204.232C117.242 205 115.594 205.384 113.706 205.384C111.53 205.384 109.546 204.824 107.754 203.704C105.962 202.552 104.538 200.936 103.482 198.856C102.458 196.744 101.946 194.312 101.946 191.56ZM122.01 191.608C122.01 189.56 121.434 187.944 120.282 186.76C119.162 185.576 117.786 184.984 116.154 184.984C114.522 184.984 113.13 185.576 111.978 186.76C110.858 187.912 110.298 189.512 110.298 191.56C110.298 193.608 110.858 195.24 111.978 196.456C113.13 197.64 114.522 198.232 116.154 198.232C117.786 198.232 119.162 197.64 120.282 196.456C121.434 195.272 122.01 193.656 122.01 191.608Z" fill="#084F8C"/>
<path d="M139.276 203.176H151.804V205H137.116V171.304H139.276V203.176ZM157.813 173.128C157.301 173.128 156.869 172.968 156.517 172.648C156.165 172.296 155.989 171.832 155.989 171.256C155.989 170.712 156.165 170.264 156.517 169.912C156.869 169.56 157.301 169.384 157.813 169.384C158.325 169.384 158.757 169.56 159.109 169.912C159.461 170.264 159.637 170.712 159.637 171.256C159.637 171.832 159.461 172.296 159.109 172.648C158.757 172.968 158.325 173.128 157.813 173.128ZM158.869 178.936V205H156.709V178.936H158.869ZM178.548 178.408C181.652 178.408 184.18 179.368 186.132 181.288C188.084 183.176 189.06 185.992 189.06 189.736V205H186.948V189.88C186.948 186.776 186.164 184.408 184.596 182.776C183.028 181.112 180.9 180.28 178.212 180.28C175.396 180.28 173.14 181.176 171.444 182.968C169.78 184.76 168.948 187.416 168.948 190.936V205H166.788V178.936H168.948V184.456C169.684 182.504 170.9 181.016 172.596 179.992C174.324 178.936 176.308 178.408 178.548 178.408ZM210.23 205L198.854 193.048V205H196.694V169.48H198.854V190.744L210.038 178.936H213.062L200.438 191.896L213.206 205H210.23Z" fill="#1399CF"/>
<path d="M147.811 57.2319C147.201 62.9131 139.498 67.5064 132.178 59.5589C113.758 39.5589 95.3378 43.5589 80.3107 60.059C75.8686 64.6409 71.1856 65.2476 68.1294 61.704C65.0486 58.1319 66.4239 52.7017 69.2591 48.9316C90.8242 20.256 132.83 27.4278 146.706 53.1054C147.397 54.3831 147.967 55.7879 147.811 57.2319Z" fill="#1399CF"/>
<path d="M166.447 31.1132C166.295 37.4367 158.389 41.005 147.5 31.5588C120.031 7.7284 88.5296 13.3985 66.1208 33.0586C59.9334 38.158 54.4246 41.0576 50.5578 39.0423C45.471 36.3913 47.7662 28.7478 51.6357 24.5134C83.4826 -10.3373 144.191 -4.30323 164.739 26.3714C165.693 27.7961 166.488 29.3989 166.447 31.1132Z" fill="#1399CF"/>
</svg>
