<svg width="79" height="99" viewBox="0 0 79 99" fill="none" xmlns="http://www.w3.org/2000/svg">
<g filter="url(#filter0_d_492_44)">
<path d="M33.3698 54.3457C22.296 60.296 15.6347 60.3265 4.88482 57.1361C4.37284 56.9841 3.99866 56.5254 4.00003 55.9913C4.02556 46.0412 18.4755 45.2179 33.3134 52.1305C34.2468 52.5654 34.277 53.8583 33.3698 54.3457Z" fill="#1399CF"/>
<path d="M71.3166 68.4853C59.453 101.342 8.06891 97.1613 4.39621 62.6493C4.32455 61.9759 4.94372 61.4205 5.60649 61.5596C9.0797 62.2885 18.6252 63.9945 25.5011 62.4C34.0502 60.4175 41.1199 54.1467 41.1199 54.1467C41.1199 54.1467 49.483 46.7619 58.5796 47.8992C68.4691 49.1357 74.7013 59.1112 71.3166 68.4853Z" fill="#084F8C"/>
<path d="M40.3863 31.9728C39.2023 31.6939 29.8397 46.7541 40.3863 46.7541C50.933 46.7541 41.5704 32.2517 40.3863 31.9728Z" fill="#1399CF"/>
<path d="M63.2637 33.0173C62.2799 35.7711 58.3437 37.5053 54.5848 33.4241C44.1099 22.051 33.635 24.3256 25.0897 33.7085C23.6793 35.1633 22.2261 35.9134 20.9152 35.9414C16.1991 36.0421 17.5972 28.3971 20.8382 24.9697C33.2889 11.8025 54.5013 15.754 62.3803 28.9352C63.1255 30.1819 63.7523 31.6496 63.2637 33.0173Z" fill="#1399CF"/>
<path d="M73.8953 18.3444C73.0014 21.1944 68.8252 22.297 63.2977 17.5016C47.6773 3.95027 29.7637 7.17461 17.0207 18.3545C15.1974 19.8572 13.4777 21.024 11.9379 21.64C6.61204 23.7705 7.27561 14.5848 11.5487 10.7579C29.8632 -5.64409 60.8103 -2.17837 72.4601 13.6404C73.477 15.0212 74.4085 16.7082 73.8953 18.3444Z" fill="#1399CF"/>
</g>
<defs>
<filter id="filter0_d_492_44" x="0" y="0" width="78.0408" height="98.9699" filterUnits="userSpaceOnUse" color-interpolation-filters="sRGB">
<feFlood flood-opacity="0" result="BackgroundImageFix"/>
<feColorMatrix in="SourceAlpha" type="matrix" values="0 0 0 0 0 0 0 0 0 0 0 0 0 0 0 0 0 0 127 0" result="hardAlpha"/>
<feOffset dy="4"/>
<feGaussianBlur stdDeviation="2"/>
<feComposite in2="hardAlpha" operator="out"/>
<feColorMatrix type="matrix" values="0 0 0 0 0 0 0 0 0 0 0 0 0 0 0 0 0 0 0.25 0"/>
<feBlend mode="normal" in2="BackgroundImageFix" result="effect1_dropShadow_492_44"/>
<feBlend mode="normal" in="SourceGraphic" in2="effect1_dropShadow_492_44" result="shape"/>
</filter>
</defs>
</svg>
