<svg width="124" height="160" viewBox="0 0 124 160" fill="none" xmlns="http://www.w3.org/2000/svg">
<path d="M53.4661 94.6977C32.801 106.149 20.9358 106.24 1.13846 100.283C0.627058 100.13 0.251769 99.6598 0.234076 99.126C-0.379052 80.6287 26.4261 79.3042 53.4087 92.4528C54.3344 92.9039 54.3668 94.1986 53.4661 94.6977Z" fill="#1399CF"/>
<path d="M120.415 114.575C103.626 178.989 6.52394 172.772 0.818125 109.125C0.757658 108.451 1.36947 107.89 2.03084 108.035C7.03591 109.137 25.1854 112.711 38.0339 109.732C53.0678 106.246 65.5 95.2183 65.5 95.2183C65.5 95.2183 80.2068 82.232 96.2034 84.232C98.3139 84.4958 100.332 84.838 102.244 85.2333C115.675 88.009 123.874 101.304 120.415 114.575Z" fill="#084F8C"/>
<path d="M64.2102 56.225C62.1281 55.7346 45.6636 82.2183 64.2102 82.2183C82.7567 82.2183 66.2923 56.7154 64.2102 56.225Z" fill="#1399CF"/>
<path d="M104.811 56.4502C104.201 62.1314 96.4983 66.7247 89.1785 58.7772C70.7581 38.7772 52.3378 42.7772 37.3107 59.2772C32.8686 63.8591 28.1856 64.4659 25.1294 60.9223C22.0486 57.3502 23.4239 51.9199 26.2591 48.1499C47.8242 19.4742 89.8299 26.6461 103.706 52.3237C104.397 53.6014 104.967 55.0062 104.811 56.4502Z" fill="#1399CF"/>
<path d="M123.447 30.3315C123.295 36.655 115.389 40.2233 104.5 30.777C77.0312 6.94666 45.5296 12.6167 23.1208 32.2768C16.9334 37.3763 11.4246 40.2758 7.55778 38.2606C2.47097 35.6096 4.76618 27.9661 8.63568 23.7316C40.4826 -11.119 101.191 -5.08496 121.739 25.5897C122.693 27.0144 123.488 28.6172 123.447 30.3315Z" fill="#1399CF"/>
</svg>
